<svg xmlns="http://www.w3.org/2000/svg" xmlns:xlink="http://www.w3.org/1999/xlink" width="600" height="450" viewBox="0 0 600 450">
  <defs>
    <clipPath id="clip-Animation">
      <rect width="600" height="450"/>
    </clipPath>
  </defs>
  <g id="Animation" clip-path="url(#clip-Animation)">
    <rect width="600" height="450" fill="#fff"/>
    <g id="globe" transform="translate(43.265 -164.959)">
      <ellipse id="Ellipse_64" data-name="Ellipse 64" cx="186.735" cy="184.34" rx="186.735" ry="184.34" transform="translate(70 205)" fill="#81d4fa"/>
      <path id="Path_37" data-name="Path 37" d="M-2289.43,393.562c38.577,12.475,70.724-27.228,101.444-32.483s23.2-3.856,21.436,11.465-34.168,70.283-34.168,70.283,24.283,17.745,22.038,20.821-31.019-8.518-31.019-8.518l-22.21,31.244s-3.219,30.242,10.088,46,37.865-10,43.14,17.048,2.15,84.439-22.038,91.15-34.4-19.308-58.242-35.384-31.976-22.211-37.143-28.922-11.368-13.7,0-26.845,36.186-9.973,45.472-25.736-8.329-37.317-8.329-37.317-25.827.742-37.143-10.144-8.12-33.4-8.12-33.4-14.221-14.5-10.523-26.817S-2328.008,381.087-2289.43,393.562Z" transform="translate(2420.565 -102.712)" fill="#00c853"/>
      <path id="Path_38" data-name="Path 38" d="M-2158.494,428.458l23.29-6.356s37.577-.77,50.1,14.417,5.838,16.909,0,46.329-10.828,53.514-23.354,71.352-27.189,15.224-41.391,0,7.7-32.154-8.648-57.232-43.786-26.869-42.094-43.081S-2158.494,428.458-2158.494,428.458Z" transform="translate(2501.224 -57.685)" fill="#00c853"/>
      <path id="Path_39" data-name="Path 39" d="M-2236.16,569.579h96.224s-26.527,7.758-50.583,7.758S-2236.16,569.579-2236.16,569.579Z" transform="translate(2446.346 -2.419)" fill="#00c853"/>
      <path id="Path_40" data-name="Path 40" d="M-2316.662,468.235c0-6.466,6.406-10.571,12.643-10.571s12.3,4.1,12.3,10.571-6.065,15.294-12.3,15.294S-2316.662,474.7-2316.662,468.235Z" transform="translate(2399.064 -68.324)" fill="#00c853"/>
      <path id="Path_41" data-name="Path 41" d="M-2316.662,462.949a5.158,5.158,0,0,1,5.047-5.286,5.051,5.051,0,0,1,4.911,5.286c0,3.233-2.421,7.647-4.911,7.647S-2316.662,466.182-2316.662,462.949Z" transform="translate(2424.009 -48.925)" fill="#00c853"/>
      <path id="Path_42" data-name="Path 42" d="M-2125.213,347.128s-25.838,28.891-27.93,57.513,2.242,42.731,19.562,56.974,29.183-8.733,50.867-6.71a67.368,67.368,0,0,1,35.87,14.8s-8.149-43.677-27.741-74.323S-2125.213,347.128-2125.213,347.128Z" transform="translate(2487.106 -108.021)" fill="#00c853"/>
    </g>
    <g id="girl" transform="translate(-7 -162.069)">
      <g id="face" transform="translate(234.993 287.734)">
        <path id="Rectangle_122" data-name="Rectangle 122" d="M40.5,0h0A40.5,40.5,0,0,1,81,40.5V52.636a.935.935,0,0,1-.935.935H.935A.935.935,0,0,1,0,52.636V40.5A40.5,40.5,0,0,1,40.5,0Z" transform="translate(0 3.448)" fill="#151515"/>
        <ellipse id="Ellipse_63" data-name="Ellipse 63" cx="36.346" cy="5.215" rx="36.346" ry="5.215" transform="translate(4.154 53.57)" fill="#f5f5f5"/>
        <path id="Path_36" data-name="Path 36" d="M24.434-5.221H46.425c13.495,0,24.434,14.346,24.434,28.048v1.861A24.624,24.624,0,0,1,46.425,49.5H24.434A24.624,24.624,0,0,1,0,24.688V22.827C0,9.125,10.94-5.221,24.434-5.221Z" transform="translate(5.07 9.057)" fill="#ffe0b2"/>
        <g id="Group_343" data-name="Group 343" transform="translate(23.091 31.195)">
          <ellipse id="Ellipse_44" data-name="Ellipse 44" cx="3.054" cy="3.101" rx="3.054" ry="3.101" transform="translate(0 0)"/>
          <ellipse id="Ellipse_45" data-name="Ellipse 45" cx="3.054" cy="3.101" rx="3.054" ry="3.101" transform="translate(28.71 0)"/>
        </g>
        <path id="Rectangle_121" data-name="Rectangle 121" d="M27.339,0H45.352A27.339,27.339,0,0,1,72.691,27.339v0a.631.631,0,0,1-.631.631H.631A.631.631,0,0,1,0,27.339v0A27.339,27.339,0,0,1,27.339,0Z" transform="translate(4.154)" fill="#151515"/>
        <path id="Polygon_39" data-name="Polygon 39" d="M4.642,0,9.285,6.874H0Z" transform="translate(35.858 22.755)" fill="#ffe0b2"/>
      </g>
    </g>
  </g>
</svg>
